<?xml version="1.0" encoding="UTF-8"?>
<svg xmlns="http://www.w3.org/2000/svg" width="124.652" height="25.227" viewBox="0 0 124.652 25.227">
  <g id="Group_3" data-name="Group 3" transform="translate(0)">
    <path id="Path_14" data-name="Path 14" d="M472.507,397.012a3,3,0,0,0-1.03-2.01,3.284,3.284,0,0,0-2.127-.679,4.24,4.24,0,0,0-1.258.208,2.961,2.961,0,0,0-1.231.776,4.382,4.382,0,0,0-.937,1.58,7.766,7.766,0,0,0-.375,2.648,8.014,8.014,0,0,0,.2,1.774,4.934,4.934,0,0,0,.642,1.58,3.525,3.525,0,0,0,1.137,1.123,3.144,3.144,0,0,0,1.686.43,3.013,3.013,0,0,0,2.207-.859,4.06,4.06,0,0,0,1.084-2.412h3.05a7.034,7.034,0,0,1-2.047,4.283,6.11,6.11,0,0,1-4.294,1.483,6.864,6.864,0,0,1-2.876-.568,6.092,6.092,0,0,1-2.1-1.553,6.644,6.644,0,0,1-1.3-2.342,9.452,9.452,0,0,1-.441-2.938,10.373,10.373,0,0,1,.428-3.022,6.991,6.991,0,0,1,1.284-2.453,6.02,6.02,0,0,1,2.127-1.636,6.955,6.955,0,0,1,2.983-.6,8.058,8.058,0,0,1,2.288.319,5.946,5.946,0,0,1,1.927.956,5.05,5.05,0,0,1,1.378,1.608,5.662,5.662,0,0,1,.642,2.3Z" transform="translate(-462.5 -386.755)" fill="#00b7eb"></path>
    <path id="Path_15" data-name="Path 15" d="M488.669,406.936a7.3,7.3,0,0,1-2.957-.569,6.3,6.3,0,0,1-2.194-1.566,6.75,6.75,0,0,1-1.365-2.384,10.074,10.074,0,0,1,0-6.071,6.751,6.751,0,0,1,1.365-2.384,6.3,6.3,0,0,1,2.194-1.566,7.977,7.977,0,0,1,5.913,0,6.307,6.307,0,0,1,2.194,1.566,6.762,6.762,0,0,1,1.365,2.384,10.074,10.074,0,0,1,0,6.071,6.761,6.761,0,0,1-1.365,2.384,6.308,6.308,0,0,1-2.194,1.566,7.3,7.3,0,0,1-2.957.569m0-2.5a3.4,3.4,0,0,0,1.766-.444,3.769,3.769,0,0,0,1.231-1.164,5.174,5.174,0,0,0,.709-1.622,7.53,7.53,0,0,0,0-3.673,5,5,0,0,0-.709-1.621,3.832,3.832,0,0,0-1.231-1.151,3.736,3.736,0,0,0-3.532,0,3.835,3.835,0,0,0-1.231,1.151,4.985,4.985,0,0,0-.709,1.621,7.53,7.53,0,0,0,0,3.673,5.162,5.162,0,0,0,.709,1.622A3.772,3.772,0,0,0,486.9,404a3.4,3.4,0,0,0,1.766.444" transform="translate(-467.45 -386.755)" fill="#00b7eb"></path>
    <path id="Path_16" data-name="Path 16" d="M503.185,401.856a4.481,4.481,0,0,0,.428,1.76,4.24,4.24,0,0,0,.977,1.3,4.044,4.044,0,0,0,1.4.818,5.281,5.281,0,0,0,1.739.277,8.9,8.9,0,0,0,1.432-.125,4.845,4.845,0,0,0,1.418-.457,2.969,2.969,0,0,0,1.084-.929,2.531,2.531,0,0,0,.427-1.511,2.269,2.269,0,0,0-.7-1.8,4.809,4.809,0,0,0-1.753-.943,17.207,17.207,0,0,0-2.275-.541,11.487,11.487,0,0,1-2.274-.624,4.615,4.615,0,0,1-1.752-1.178,3.794,3.794,0,0,1-.241-3.992,3.433,3.433,0,0,1,1.164-1.123,5.165,5.165,0,0,1,1.592-.6,8.835,8.835,0,0,1,1.766-.18,7.778,7.778,0,0,1,2.007.249,4.28,4.28,0,0,1,1.619.8,3.813,3.813,0,0,1,1.071,1.414,5.039,5.039,0,0,1,.388,2.079h-1.017a4.089,4.089,0,0,0-.308-1.664,2.891,2.891,0,0,0-.856-1.123,3.682,3.682,0,0,0-1.3-.638,5.977,5.977,0,0,0-1.605-.208,7.314,7.314,0,0,0-1.4.139,3.977,3.977,0,0,0-1.271.471,2.889,2.889,0,0,0-.923.859,2.513,2.513,0,0,0,.04,2.661,2.881,2.881,0,0,0,1.057.846,7.106,7.106,0,0,0,1.472.513q.816.194,1.646.388,1.016.194,1.913.458a5.317,5.317,0,0,1,1.552.721,3.236,3.236,0,0,1,1.03,1.178,3.96,3.96,0,0,1,.374,1.83,3.334,3.334,0,0,1-.508,1.913,3.978,3.978,0,0,1-1.284,1.206,5.321,5.321,0,0,1-1.726.638,9.993,9.993,0,0,1-1.86.18,7.163,7.163,0,0,1-2.181-.319,4.885,4.885,0,0,1-1.753-.97,4.6,4.6,0,0,1-1.177-1.594,5.516,5.516,0,0,1-.455-2.19Z" transform="translate(-472.735 -386.803)" fill="#414141"></path>
    <path id="Path_17" data-name="Path 17" d="M524.771,391.835h-3v9.952a3.972,3.972,0,0,0,.187,1.359,1.541,1.541,0,0,0,.575.762,1.993,1.993,0,0,0,.936.319,9.238,9.238,0,0,0,1.271.028v.915a9.149,9.149,0,0,1-1.512-.014,2.956,2.956,0,0,1-1.3-.416,2.41,2.41,0,0,1-.9-1.039,4.05,4.05,0,0,1-.281-1.913v-9.952h-2.542v-.915h2.542v-4.435h1.017v4.435h3Z" transform="translate(-476.876 -385.376)" fill="#414141"></path>
    <path id="Path_18" data-name="Path 18" d="M530.591,395.593h.08a3.51,3.51,0,0,1,.682-1.3,4.84,4.84,0,0,1,1.2-1.053,5.843,5.843,0,0,1,1.579-.679,6.183,6.183,0,0,1,1.806-.208V393.4a4.669,4.669,0,0,0-1.833.166,4.421,4.421,0,0,0-1.967,1.22,9.619,9.619,0,0,0-.655.8,3.908,3.908,0,0,0-.468.859,5.562,5.562,0,0,0-.294,1.053,9.445,9.445,0,0,0-.134,1.386v7.79h-1.017V392.433h1.017Z" transform="translate(-479.807 -386.889)" fill="#414141"></path>
    <path id="Path_19" data-name="Path 19" d="M547.78,403.769h-.054a4.418,4.418,0,0,1-.7,1.206,4.979,4.979,0,0,1-1.111,1.012,5.415,5.415,0,0,1-1.485.693,6.3,6.3,0,0,1-1.819.249,5.238,5.238,0,0,1-3.4-.984,3.692,3.692,0,0,1-1.2-3.036,3.863,3.863,0,0,1,.482-2.038,3.714,3.714,0,0,1,1.217-1.247,5.112,5.112,0,0,1,1.632-.651,15.541,15.541,0,0,1,1.726-.277l1.579-.138a8.985,8.985,0,0,0,1.726-.264,2.178,2.178,0,0,0,.95-.5,1.439,1.439,0,0,0,.4-.818,8.052,8.052,0,0,0,.08-1.248,2.713,2.713,0,0,0-.214-1.081,2.419,2.419,0,0,0-.669-.887,3.27,3.27,0,0,0-1.178-.61,6.077,6.077,0,0,0-1.766-.222,4.524,4.524,0,0,0-2.983.943,3.787,3.787,0,0,0-1.244,2.855h-1.017a4.743,4.743,0,0,1,1.458-3.535,5.665,5.665,0,0,1,3.84-1.178,5.371,5.371,0,0,1,3.625,1.012,3.376,3.376,0,0,1,1.138,2.648v8.289c0,.2,0,.407.013.61a2.106,2.106,0,0,0,.094.554.752.752,0,0,0,.8.554,4.7,4.7,0,0,0,.749-.083v.887a3.085,3.085,0,0,1-.83.111,2.374,2.374,0,0,1-.977-.166,1.292,1.292,0,0,1-.548-.444,1.664,1.664,0,0,1-.254-.651,4.64,4.64,0,0,1-.067-.818Zm0-5.267a1.91,1.91,0,0,1-1.137.638,13.778,13.778,0,0,1-1.7.249l-1.713.166q-.749.083-1.5.236a4.28,4.28,0,0,0-1.351.513,2.809,2.809,0,0,0-.977.984,3.117,3.117,0,0,0-.375,1.622,2.805,2.805,0,0,0,.963,2.343,4.161,4.161,0,0,0,2.649.762,5.067,5.067,0,0,0,2.756-.651,4.95,4.95,0,0,0,1.552-1.5,4.7,4.7,0,0,0,.682-1.636,7.207,7.207,0,0,0,.147-1.067Z" transform="translate(-481.984 -386.803)" fill="#414141"></path>
    <path id="Path_20" data-name="Path 20" d="M561.446,391.835h-3v9.952a3.969,3.969,0,0,0,.187,1.359,1.539,1.539,0,0,0,.575.762,1.992,1.992,0,0,0,.936.319,9.24,9.24,0,0,0,1.271.028v.915a9.15,9.15,0,0,1-1.512-.014,2.955,2.955,0,0,1-1.3-.416,2.407,2.407,0,0,1-.9-1.039,4.051,4.051,0,0,1-.281-1.913v-9.952h-2.542v-.915h2.542v-4.435h1.017v4.435h3Z" transform="translate(-486.339 -385.376)" fill="#414141"></path>
    <path id="Path_21" data-name="Path 21" d="M565.9,399.61v.166a8.7,8.7,0,0,0,.322,2.384,6.173,6.173,0,0,0,.953,2,4.561,4.561,0,0,0,1.583,1.359,4.7,4.7,0,0,0,2.213.5,4.617,4.617,0,0,0,3.273-1.123,5.937,5.937,0,0,0,1.664-3.119h1.017a6.448,6.448,0,0,1-1.967,3.826,6.615,6.615,0,0,1-6.663.762,5.452,5.452,0,0,1-1.9-1.552,6.678,6.678,0,0,1-1.137-2.329,10.727,10.727,0,0,1-.375-2.9,10.5,10.5,0,0,1,.388-2.869,7.3,7.3,0,0,1,1.164-2.412,5.813,5.813,0,0,1,1.94-1.663,5.726,5.726,0,0,1,2.743-.624,5.651,5.651,0,0,1,2.555.554,5.4,5.4,0,0,1,1.86,1.511,6.817,6.817,0,0,1,1.137,2.218,9.167,9.167,0,0,1,.388,2.7q0,.139-.013.319t-.014.291Zm10.114-.915a8.793,8.793,0,0,0-.375-2.2,5.523,5.523,0,0,0-.953-1.83,4.763,4.763,0,0,0-1.529-1.261,4.355,4.355,0,0,0-2.053-.471,4.672,4.672,0,0,0-2.173.485,4.933,4.933,0,0,0-1.583,1.275,5.739,5.739,0,0,0-.992,1.844,8.914,8.914,0,0,0-.429,2.162Z" transform="translate(-488.917 -386.803)" fill="#414141"></path>
    <path id="Path_22" data-name="Path 22" d="M595.592,392.347v13.5a9.966,9.966,0,0,1-.267,2.315,5.234,5.234,0,0,1-.921,1.982,4.53,4.53,0,0,1-1.8,1.372,7.157,7.157,0,0,1-2.909.513,8.626,8.626,0,0,1-2.055-.236,4.869,4.869,0,0,1-1.682-.749,3.773,3.773,0,0,1-1.161-1.358,4.96,4.96,0,0,1-.494-2.093h1.017a3.921,3.921,0,0,0,.455,1.608,3.344,3.344,0,0,0,.977,1.1,4.056,4.056,0,0,0,1.351.624,6.391,6.391,0,0,0,1.605.194,5.594,5.594,0,0,0,2.368-.443,4.121,4.121,0,0,0,1.512-1.151,4.209,4.209,0,0,0,.789-1.608,7.392,7.392,0,0,0,.227-1.816v-3.271h-.078a5.624,5.624,0,0,1-1.962,2.412,5.273,5.273,0,0,1-3,.831,5.939,5.939,0,0,1-2.63-.541,5.108,5.108,0,0,1-1.842-1.5,6.544,6.544,0,0,1-1.095-2.231,10.157,10.157,0,0,1-.36-2.772,9.184,9.184,0,0,1,.388-2.689,6.771,6.771,0,0,1,1.137-2.231,5.417,5.417,0,0,1,4.415-2.093,5.586,5.586,0,0,1,3.01.859,4.741,4.741,0,0,1,1.967,2.44h.053v-2.966Zm-6.02.582a4.329,4.329,0,0,0-2.181.527,4.665,4.665,0,0,0-1.525,1.386,6.383,6.383,0,0,0-.91,1.954,8.21,8.21,0,0,0-.308,2.232,8.93,8.93,0,0,0,.308,2.371,5.7,5.7,0,0,0,.937,1.954,4.6,4.6,0,0,0,1.552,1.316,4.5,4.5,0,0,0,2.127.485,4.448,4.448,0,0,0,3.76-1.857,6.059,6.059,0,0,0,.936-1.954,8.81,8.81,0,0,0,0-4.616,5.891,5.891,0,0,0-.936-1.954,4.666,4.666,0,0,0-1.566-1.344,4.6,4.6,0,0,0-2.194-.5" transform="translate(-493.755 -386.803)" fill="#414141"></path>
    <path id="Path_23" data-name="Path 23" d="M604.151,384.99h1.017v2.855h-1.017Zm0,5.545h1.017v14.249h-1.017Z" transform="translate(-499.05 -384.99)" fill="#414141"></path>
    <path id="Path_24" data-name="Path 24" d="M613.054,399.227l-5.03-6.764h1.418l4.308,5.96,4.335-5.96H619.4l-4.977,6.764,5.432,7.485h-1.391l-4.709-6.681-4.816,6.681h-1.284Z" transform="translate(-499.952 -386.918)" fill="#414141"></path>
    <path id="Path_25" data-name="Path 25" d="M625.072,392.689h-.742v-.259h1.779v.259h-.743V394.8h-.294Zm1.441-.259h.471l.737,1.918.715-1.918h.471V394.8h-.294v-2.09H628.6l-.809,2.09h-.166l-.809-2.09h-.011v2.09h-.294Z" transform="translate(-504.256 -386.91)" fill="#414141"></path>
  </g>
</svg>
