<?xml version="1.0" encoding="utf-8"?>
<!-- Generator: Adobe Illustrator 26.5.0, SVG Export Plug-In . SVG Version: 6.00 Build 0)  -->
<svg version="1.1" id="Laag_1" xmlns="http://www.w3.org/2000/svg" xmlns:xlink="http://www.w3.org/1999/xlink" x="0px" y="0px"
	 width="546px" height="312px" viewBox="0 0 546 312" style="enable-background:new 0 0 546 312;" xml:space="preserve">
<style type="text/css">
	.st0{fill:#003087;stroke:#FFFFFF;stroke-width:3.148430e-02;stroke-miterlimit:123.7911;stroke-opacity:0;}
</style>
<path id="path5037" class="st0" d="M356.3,96.4v59.5l-0.8,0.6l-0.8,0.6l-0.7,0.7l-0.7,0.7l-0.7,0.7l-0.7,0.7l-0.6,0.7l-0.6,0.7V96.4
	h-66.5v54.2h-5.5V96.4h-66.5v54.3h-5.5V96.4h-66.5v61.8l-17,56.1h14.9l7.5-24.8h2.2l12.4,24.8h18l-12-24.8h27.3l-7.6,24.8h16.3
	l7.5-24.8h3.6v-0.1h5.1h0.4h30.8l-7.2,24.8h16.4l7-24.8h7.4l0.2,24.8h13.8l15.8-24.8h10.4l-5.4,24.8h16.2l5.3-24.8h9.4l-0.1,1.4
	l0,1.4l0.1,1.4l0.1,1.4l0.1,0.7l0.1,0.7l0.1,0.7l0.1,0.7l0.2,0.7l0.2,0.6l0.2,0.6l0.2,0.6l0.2,0.6l0.2,0.6l0.3,0.6l0.3,0.6l0.3,0.6
	l0.3,0.6l0.3,0.5l0.3,0.6l0.3,0.5l0.4,0.5l0.4,0.5l0.4,0.5l0.4,0.5l0.4,0.5l0.5,0.5l0.5,0.4l0.6,0.5l0.6,0.5l0.6,0.5l0.7,0.4
	l0.7,0.4l0.7,0.4l0.7,0.3l0.7,0.4l0.7,0.3l0.7,0.3l0.7,0.3l0.8,0.3l0.8,0.3l0.8,0.2l0.8,0.2l0.8,0.2l1.5,0.3l1.5,0.3l1.5,0.2
	l1.5,0.2l1.5,0.1l1.5,0.1l1.4,0.1h1.4l1.8,0l1.8,0l1.9-0.1l1.9-0.1l1.9-0.2l1.9-0.2l1.9-0.2l1.9-0.2l1.9-0.3l1.9-0.3l1.9-0.3
	l1.9-0.3l1.9-0.3l1.9-0.4l1.9-0.4l1.9-0.4l5.6-22.5h18.5V96.4L356.3,96.4L356.3,96.4z M146.4,187.2l0.1-0.3l0.2,0.3
	C146.7,187.2,146.4,187.2,146.4,187.2z M204.3,153.8l-0.9,3.2l-8.9,29.1l-0.3,1h-29.1l-2.2-4.8l31.3-31.8H174l-24.5,26.2l7.9-26.2
	h-14.9V98.7h61.7L204.3,153.8L204.3,153.8z M221.5,178.4L221.5,178.4l-0.5,0l-0.4,0l-0.5,0h-0.5h-0.7h-0.6l-0.5,0h-0.5l-4,0l1.8-6.7
	l0.9-3.3l2.1-7.8h0.7h0.7l0.7,0h0.6h3.1l1.9,0l1.7,0.1l0.8,0l0.7,0.1l0.7,0.1l0.6,0.1l0.6,0.1l0.5,0.2l0.5,0.2l0.4,0.2l0.4,0.2
	l0.3,0.3l0.3,0.3l0.3,0.3l0.2,0.3l0.1,0.3l0.1,0.3l0.1,0.3l0.1,0.3l0,0.3v0.4v0.4l0,0.4l0,0.4l-0.1,0.5l-0.1,0.5l-0.3,1.1l-0.3,1.2
	l-0.3,1l-0.4,1l-0.4,0.9l-0.4,0.8l-0.2,0.4l-0.2,0.4l-0.3,0.4l-0.3,0.3l-0.3,0.3l-0.3,0.3l-0.3,0.3l-0.3,0.3l-0.3,0.3l-0.3,0.3
	l-0.4,0.2l-0.4,0.3l-0.4,0.2l-0.4,0.2l-0.4,0.2l-0.5,0.2l-0.5,0.2l-0.5,0.1l-0.6,0.1l-0.6,0.1l-0.6,0.1l-0.6,0.1l-0.7,0.1
	L221.5,178.4L221.5,178.4z M266.5,187.2l6.5-22.9l0.3,22.9H266.5L266.5,187.2z M276.3,150.5h-15.4l-10.6,36.6h-16.4l0.8-0.3l0.8-0.3
	l0.7-0.3l0.7-0.3l0.7-0.3l0.7-0.4l0.7-0.4l0.6-0.4l0.6-0.4l0.6-0.4l0.6-0.4l0.6-0.5l0.5-0.5l0.5-0.5l0.5-0.5l0.5-0.6l0.5-0.5
	l0.4-0.6l0.4-0.6l0.4-0.6l0.4-0.6l0.3-0.6l0.3-0.7l0.3-0.7l0.3-0.7l0.3-0.7l0.3-0.7l0.3-0.8l0.2-0.8l0.2-0.8l0.2-0.8l0.2-0.8
	l0.2-1.3l0.2-1.2l0.1-1.1l0.1-1.1l0-1.1l0-1l0-1l-0.1-0.9l-0.1-0.8l-0.2-0.8l-0.2-0.8l-0.3-0.8l-0.3-0.7l-0.4-0.7l-0.4-0.7l-0.5-0.6
	l-0.4-0.4l-0.4-0.4l-0.4-0.4l-0.5-0.3l-0.5-0.3l-0.5-0.3l-0.5-0.3l-0.5-0.3l-0.6-0.3l-0.6-0.2l-0.6-0.2l-0.6-0.2l-0.6-0.2l-0.6-0.1
	l-0.6-0.1l-0.7-0.1l-1.4-0.2l-1.4-0.1l-1.4-0.1l-1.4,0h-2.8h-2.8H226h-1.6h-2h-2.2h-2.1h-1.8h-1.3h-0.5V98.7h61.7L276.3,150.5
	L276.3,150.5z M313.8,187.2h-9.3l14-21.9L313.8,187.2z M348.3,151.6l0,12.7l-0.8,1.1l-0.7,1.1l-0.7,1.1l-0.7,1.1l-0.6,1.1l-0.6,1.2
	l-0.5,1.1l-0.5,1.1l-0.5,1.1l-0.4,1.1l-0.4,1.1l-0.4,1.1l-0.3,1.1l-0.3,1l-0.3,1l-0.3,1l-0.2,0.7l-0.2,0.7l-0.2,0.7l-0.1,0.7
	l-0.1,0.7l-0.1,0.7l-0.1,0.7l-0.1,0.7H330l7.7-36.5l-26.1,0l-23.4,36.5h-1.7V98.7h61.8L348.3,151.6L348.3,151.6z M383.9,202.1
	l-1.3,0.2l-1.3,0.2l-1.3,0.2l-1.3,0.2l-1.3,0.1l-1.3,0.1l-1.3,0.1h-1.3h-0.8l-0.8,0l-0.8-0.1l-0.8-0.1l-0.8-0.1l-0.7-0.1l-0.7-0.2
	l-0.7-0.2l-0.7-0.2l-0.7-0.2l-0.6-0.3l-0.6-0.3l-0.6-0.3l-0.6-0.3l-0.5-0.4l-0.5-0.4l-0.5-0.4l-0.4-0.5l-0.4-0.5l-0.4-0.5l-0.4-0.5
	l-0.3-0.6l-0.3-0.6l-0.3-0.6l-0.3-0.7l-0.2-0.7l-0.2-0.7l-0.2-0.8l-0.1-0.8l-0.1-0.8l-0.1-0.8l0-0.9h28.8L383.9,202.1L383.9,202.1z
	 M420.4,187.2h-15.6l2.6-10.2h-31.2l-2.6,10.2h-15.1v-2.1l0.2-0.9l0.2-0.9l0.2-0.9l0.2-0.9l0.3-1l0.3-1l0.3-1l0.3-1l0.4-1l0.4-1
	l0.4-1l0.4-1l0.5-1l0.5-0.9l0.5-0.9l0.6-0.9l0.6-0.9l0.6-0.8l0.7-0.8l0.7-0.8l0.7-0.8l0.7-0.7l0.8-0.7l0.8-0.7l0.8-0.6l0.9-0.6
	l0.9-0.5l0.9-0.5l0.9-0.4l1-0.4l1-0.3l1-0.3l1.1-0.2l1.1-0.2l1.1-0.1l1.2,0l0.9,0l0.9,0.1l0.9,0.1l0.9,0.2l0.4,0.1l0.4,0.1l0.4,0.1
	l0.4,0.2l0.4,0.2l0.4,0.2l0.3,0.2l0.3,0.2l0.3,0.3l0.3,0.3l0.3,0.3l0.3,0.3l0.3,0.3l0.2,0.4l0.2,0.4l0.2,0.4l0.2,0.4l0.1,0.5
	l0.1,0.5l0.1,0.5l0,0.5v0.6v0.6l-0.1,0.6h18.6l0.3-1.3l0.3-1.5l0.1-0.8l0.1-0.8l0.1-0.8v-0.9l0-0.9l-0.1-0.9l-0.1-0.4l-0.1-0.5
	l-0.1-0.5l-0.1-0.5l-0.2-0.5l-0.2-0.5l-0.2-0.5l-0.2-0.5l-0.2-0.5l-0.3-0.5l-0.3-0.5l-0.3-0.5l-0.4-0.5l-0.4-0.5l-0.4-0.5l-0.4-0.4
	l-0.5-0.4l-0.5-0.4l-0.5-0.4l-0.5-0.4l-0.6-0.4l-0.6-0.3l-0.6-0.3l-0.6-0.3l-0.6-0.3l-0.7-0.3l-0.7-0.3l-0.7-0.3l-0.7-0.2l-0.8-0.2
	l-0.7-0.2l-0.8-0.2l-0.8-0.2l-0.8-0.2l-0.8-0.1l-0.9-0.1l-1.7-0.2l-1.8-0.2l-1.9-0.1l-1.9,0l-1.4,0l-1.5,0l-1.5,0.1l-1.6,0.1
	l-1.7,0.2l-1.7,0.2l-1.7,0.3l-1.8,0.4l-0.9,0.2l-0.9,0.2l-0.9,0.3l-0.9,0.3l-0.9,0.3l-0.9,0.3l-0.9,0.3l-0.9,0.3l-0.9,0.4l-0.9,0.4
	l-0.9,0.4l-0.9,0.4l-0.9,0.5l-0.9,0.5l-0.9,0.5l-0.9,0.6V98.7h61.8L420.4,187.2L420.4,187.2z"/>
</svg>
